<svg width="24" height="24" viewBox="0 0 24 24" fill="none" xmlns="http://www.w3.org/2000/svg">
<g clip-path="url(#clip0_3312_3786)">
<path d="M18.375 0H5.625C2.5184 0 0 2.5184 0 5.625V18.375C0 21.4816 2.5184 24 5.625 24H18.375C21.4816 24 24 21.4816 24 18.375V5.625C24 2.5184 21.4816 0 18.375 0Z" fill="#242938"/>
<path d="M13.0113 17.5625H19.4587C19.6634 17.5626 19.8646 17.5091 20.042 17.4076C20.2193 17.3062 20.3665 17.1602 20.4689 16.9843C20.5713 16.8085 20.6251 16.6091 20.625 16.4062C20.6249 16.2032 20.5709 16.0039 20.4683 15.8282L16.1385 8.39515C16.0361 8.2194 15.8889 8.07344 15.7117 7.97197C15.5343 7.8705 15.3332 7.81706 15.1284 7.81706C14.9237 7.81706 14.7226 7.8705 14.5452 7.97197C14.3679 8.07344 14.2207 8.2194 14.1184 8.39515L13.0113 10.297L10.8466 6.57799C10.7442 6.40226 10.5969 6.25632 10.4196 6.15486C10.2422 6.05342 10.041 6 9.83625 6C9.6315 6 9.43031 6.05342 9.25296 6.15486C9.07558 6.25632 8.9283 6.40226 8.82588 6.57799L3.43785 15.8282C3.33535 16.0039 3.28134 16.2032 3.28125 16.4062C3.28117 16.6091 3.335 16.8085 3.43734 16.9843C3.53969 17.1602 3.68694 17.3062 3.86429 17.4076C4.04163 17.5091 4.24282 17.5626 4.44759 17.5625H8.49474C10.0983 17.5625 11.2808 16.8644 12.0945 15.5025L14.07 12.1117L15.1282 10.297L18.3038 15.7478H14.07L13.0113 17.5625ZM8.42876 15.746L5.60437 15.7453L9.83813 8.47796L11.9506 12.1117L10.5362 14.5403C9.99581 15.424 9.38194 15.746 8.42876 15.746Z" fill="#00DC82"/>
</g>
<defs>
<clipPath id="clip0_3312_3786">
<rect width="24" height="24" fill="white"/>
</clipPath>
</defs>
</svg>
